<svg width="93" height="93" viewBox="0 0 93 93" fill="none" xmlns="http://www.w3.org/2000/svg">
<g clip-path="url(#clip0_268_198)">
<path d="M72.2185 18.591H68.7934L67.525 14.413C66.3261 10.4649 62.7494 7.8125 58.6249 7.8125H36.2591C32.1333 7.8125 28.5553 10.4649 27.3577 14.413L26.0893 18.591H20.9299C9.65318 18.591 0.478516 27.7657 0.478516 39.0436V64.6879C0.478516 75.9646 9.65318 85.1393 20.9299 85.1393H72.2173C83.494 85.1393 92.6686 75.9646 92.6686 64.6879V39.0436C92.6699 27.7657 83.4952 18.591 72.2185 18.591ZM85.2158 64.6867C85.2158 71.8537 79.3856 77.684 72.2185 77.684H20.9299C13.7628 77.6828 7.93254 71.8525 7.93254 64.6867V39.0436C7.93254 31.8766 13.7628 26.0463 20.9299 26.0463H31.6177L34.4912 16.5784C34.7298 15.7945 35.4404 15.2678 36.2591 15.2678H58.6249C59.4436 15.2678 60.1529 15.7945 60.3927 16.5809L63.2675 26.0463H72.2173C79.3843 26.0463 85.2146 31.8766 85.2146 39.0436L85.2158 64.6867Z" fill="white"/>
<path d="M46.7279 31.9443C35.7406 31.9443 26.8008 40.8829 26.8008 51.8714C26.8008 62.8586 35.7394 71.7973 46.7279 71.7973C57.7163 71.7973 66.6562 62.8586 66.6562 51.8714C66.6562 40.8829 57.7163 31.9443 46.7279 31.9443ZM46.7279 64.3445C39.8503 64.3445 34.2548 58.749 34.2548 51.8727C34.2548 44.9951 39.8503 39.3996 46.7279 39.3996C53.6067 39.3996 59.2022 44.9951 59.2022 51.8727C59.2022 58.749 53.6067 64.3445 46.7279 64.3445Z" fill="white"/>
</g>
<defs>
<clipPath id="clip0_268_198">
<rect width="92.1901" height="92.1901" fill="white" transform="translate(0.480469 0.379883)"/>
</clipPath>
</defs>
</svg>
